<mxfile host="Electron" modified="2023-07-19T09:49:41.865Z" agent="Mozilla/5.0 (Macintosh; Intel Mac OS X 10_15_7) AppleWebKit/537.36 (KHTML, like Gecko) draw.io/21.6.1 Chrome/112.0.5615.204 Electron/24.6.1 Safari/537.36" etag="P6rRwqc1LaR4bpfHEIqt" version="21.6.1" type="device">
  <diagram name="Page-1" id="behRBrkuy5WnK8WDfTdi">
    <mxGraphModel dx="954" dy="699" grid="1" gridSize="10" guides="1" tooltips="1" connect="1" arrows="1" fold="1" page="1" pageScale="1" pageWidth="827" pageHeight="1169" math="0" shadow="0">
      <root>
        <mxCell id="0" />
        <mxCell id="1" parent="0" />
        <mxCell id="uSU6GmW2gP5diztikFpX-2" value="" style="rounded=0;whiteSpace=wrap;html=1;dashed=1;dashPattern=1 4;fillColor=#f5f5f5;fontColor=#333333;strokeColor=#666666;" parent="1" vertex="1">
          <mxGeometry x="20" y="120" width="770" height="695" as="geometry" />
        </mxCell>
        <mxCell id="uSU6GmW2gP5diztikFpX-6" style="edgeStyle=orthogonalEdgeStyle;rounded=0;orthogonalLoop=1;jettySize=auto;html=1;exitX=0.5;exitY=1;exitDx=0;exitDy=0;entryX=0.5;entryY=0;entryDx=0;entryDy=0;" parent="1" source="uSU6GmW2gP5diztikFpX-3" target="uSU6GmW2gP5diztikFpX-7" edge="1">
          <mxGeometry relative="1" as="geometry">
            <Array as="points" />
          </mxGeometry>
        </mxCell>
        <mxCell id="uSU6GmW2gP5diztikFpX-15" value="Multicast/Polling/Web Sockets/ Server-Sent Events" style="edgeLabel;html=1;align=center;verticalAlign=middle;resizable=0;points=[];" parent="uSU6GmW2gP5diztikFpX-6" vertex="1" connectable="0">
          <mxGeometry x="-0.3438" relative="1" as="geometry">
            <mxPoint x="40" y="4" as="offset" />
          </mxGeometry>
        </mxCell>
        <mxCell id="uSU6GmW2gP5diztikFpX-3" value="Upstream" style="rounded=0;whiteSpace=wrap;html=1;fillColor=#d5e8d4;strokeColor=#82b366;" parent="1" vertex="1">
          <mxGeometry x="40" y="30" width="120" height="50" as="geometry" />
        </mxCell>
        <mxCell id="uSU6GmW2gP5diztikFpX-4" value="Exchange/ External Market-Data Source" style="text;html=1;align=center;verticalAlign=middle;resizable=0;points=[];autosize=1;strokeColor=none;fillColor=none;" parent="1" vertex="1">
          <mxGeometry x="190" y="40" width="240" height="30" as="geometry" />
        </mxCell>
        <mxCell id="uSU6GmW2gP5diztikFpX-12" style="edgeStyle=orthogonalEdgeStyle;rounded=0;orthogonalLoop=1;jettySize=auto;html=1;" parent="1" edge="1">
          <mxGeometry relative="1" as="geometry">
            <mxPoint x="240" y="239.1" as="sourcePoint" />
            <mxPoint x="231" y="239.1" as="targetPoint" />
            <Array as="points">
              <mxPoint x="171" y="239.1" />
              <mxPoint x="171" y="239.1" />
            </Array>
          </mxGeometry>
        </mxCell>
        <mxCell id="uSU6GmW2gP5diztikFpX-7" value="" style="whiteSpace=wrap;html=1;aspect=fixed;fillColor=#dae8fc;strokeColor=#6c8ebf;dashed=1;opacity=50;" parent="1" vertex="1">
          <mxGeometry x="25" y="164.6" width="150" height="150" as="geometry" />
        </mxCell>
        <mxCell id="uSU6GmW2gP5diztikFpX-8" value="Downstream/Clients" style="rounded=0;whiteSpace=wrap;html=1;fillColor=#d5e8d4;strokeColor=#82b366;" parent="1" vertex="1">
          <mxGeometry x="300" y="970" width="120" height="60" as="geometry" />
        </mxCell>
        <mxCell id="uSU6GmW2gP5diztikFpX-9" value="&lt;b&gt;Market-Data Feed Handler&lt;/b&gt;" style="text;html=1;strokeColor=none;fillColor=none;align=center;verticalAlign=middle;whiteSpace=wrap;rounded=0;" parent="1" vertex="1">
          <mxGeometry x="247.43" y="770" width="250" height="30" as="geometry" />
        </mxCell>
        <mxCell id="uSU6GmW2gP5diztikFpX-10" value="Pub/Sub&lt;br&gt;Messaging Queues" style="ellipse;whiteSpace=wrap;html=1;fillColor=#dae8fc;strokeColor=#6c8ebf;opacity=50;" parent="1" vertex="1">
          <mxGeometry x="230" y="199.6" width="120" height="80" as="geometry" />
        </mxCell>
        <mxCell id="uSU6GmW2gP5diztikFpX-69" style="edgeStyle=orthogonalEdgeStyle;rounded=0;orthogonalLoop=1;jettySize=auto;html=1;" parent="1" target="uSU6GmW2gP5diztikFpX-14" edge="1">
          <mxGeometry relative="1" as="geometry">
            <mxPoint x="200" y="240" as="sourcePoint" />
            <Array as="points">
              <mxPoint x="190" y="240" />
              <mxPoint x="190" y="501" />
            </Array>
          </mxGeometry>
        </mxCell>
        <mxCell id="uSU6GmW2gP5diztikFpX-76" style="edgeStyle=orthogonalEdgeStyle;rounded=0;orthogonalLoop=1;jettySize=auto;html=1;entryX=0.431;entryY=-0.094;entryDx=0;entryDy=0;entryPerimeter=0;" parent="1" source="uSU6GmW2gP5diztikFpX-14" edge="1">
          <mxGeometry relative="1" as="geometry">
            <mxPoint x="275.0140000000001" y="589.9839999999999" as="targetPoint" />
          </mxGeometry>
        </mxCell>
        <mxCell id="uSU6GmW2gP5diztikFpX-14" value="" style="image;sketch=0;aspect=fixed;html=1;points=[];align=center;fontSize=12;image=img/lib/mscae/Cache_Redis_Product.svg;" parent="1" vertex="1">
          <mxGeometry x="240" y="470" width="71.43" height="60" as="geometry" />
        </mxCell>
        <mxCell id="uSU6GmW2gP5diztikFpX-19" value="Tick Data Consumer" style="text;html=1;strokeColor=none;fillColor=none;align=center;verticalAlign=middle;whiteSpace=wrap;rounded=0;" parent="1" vertex="1">
          <mxGeometry x="10" y="320" width="200" height="20" as="geometry" />
        </mxCell>
        <mxCell id="uSU6GmW2gP5diztikFpX-49" value="" style="edgeStyle=orthogonalEdgeStyle;rounded=0;orthogonalLoop=1;jettySize=auto;html=1;" parent="1" source="uSU6GmW2gP5diztikFpX-25" target="uSU6GmW2gP5diztikFpX-37" edge="1">
          <mxGeometry relative="1" as="geometry" />
        </mxCell>
        <mxCell id="uSU6GmW2gP5diztikFpX-25" value="Queue" style="sketch=0;outlineConnect=0;strokeColor=#6c8ebf;fillColor=#dae8fc;dashed=0;verticalLabelPosition=bottom;verticalAlign=top;align=center;html=1;fontSize=12;fontStyle=0;aspect=fixed;shape=mxgraph.aws4.resourceIcon;resIcon=mxgraph.aws4.queue;opacity=50;" parent="1" vertex="1">
          <mxGeometry x="385" y="165" width="60" height="60" as="geometry" />
        </mxCell>
        <mxCell id="uSU6GmW2gP5diztikFpX-50" value="" style="edgeStyle=orthogonalEdgeStyle;rounded=0;orthogonalLoop=1;jettySize=auto;html=1;" parent="1" source="uSU6GmW2gP5diztikFpX-27" target="uSU6GmW2gP5diztikFpX-38" edge="1">
          <mxGeometry relative="1" as="geometry" />
        </mxCell>
        <mxCell id="uSU6GmW2gP5diztikFpX-27" value="Queue" style="sketch=0;outlineConnect=0;strokeColor=#6c8ebf;fillColor=#dae8fc;dashed=0;verticalLabelPosition=bottom;verticalAlign=top;align=center;html=1;fontSize=12;fontStyle=0;aspect=fixed;shape=mxgraph.aws4.resourceIcon;resIcon=mxgraph.aws4.queue;opacity=50;" parent="1" vertex="1">
          <mxGeometry x="385" y="254.6" width="60" height="60" as="geometry" />
        </mxCell>
        <mxCell id="uSU6GmW2gP5diztikFpX-28" value="Queue" style="sketch=0;outlineConnect=0;strokeColor=#6c8ebf;fillColor=#dae8fc;dashed=0;verticalLabelPosition=bottom;verticalAlign=top;align=center;html=1;fontSize=12;fontStyle=0;aspect=fixed;shape=mxgraph.aws4.resourceIcon;resIcon=mxgraph.aws4.queue;opacity=50;" parent="1" vertex="1">
          <mxGeometry x="385" y="350" width="60" height="60" as="geometry" />
        </mxCell>
        <mxCell id="uSU6GmW2gP5diztikFpX-30" value="Internal Buffer&lt;br&gt;" style="dashed=0;outlineConnect=0;html=1;align=center;labelPosition=center;verticalLabelPosition=bottom;verticalAlign=top;shape=mxgraph.weblogos.buffer;fillColor=#221F1F;strokeColor=none" parent="1" vertex="1">
          <mxGeometry x="70" y="189.6" width="70.4" height="60.400000000000006" as="geometry" />
        </mxCell>
        <mxCell id="uSU6GmW2gP5diztikFpX-58" value="" style="edgeStyle=orthogonalEdgeStyle;rounded=0;orthogonalLoop=1;jettySize=auto;html=1;" parent="1" source="uSU6GmW2gP5diztikFpX-37" target="uSU6GmW2gP5diztikFpX-54" edge="1">
          <mxGeometry relative="1" as="geometry" />
        </mxCell>
        <mxCell id="uSU6GmW2gP5diztikFpX-37" value="Stock Tracker Service" style="rounded=0;whiteSpace=wrap;html=1;fillColor=#dae8fc;strokeColor=#6c8ebf;opacity=50;" parent="1" vertex="1">
          <mxGeometry x="490" y="164.6" width="120" height="60" as="geometry" />
        </mxCell>
        <mxCell id="uSU6GmW2gP5diztikFpX-59" value="" style="edgeStyle=orthogonalEdgeStyle;rounded=0;orthogonalLoop=1;jettySize=auto;html=1;" parent="1" source="uSU6GmW2gP5diztikFpX-38" target="uSU6GmW2gP5diztikFpX-55" edge="1">
          <mxGeometry relative="1" as="geometry" />
        </mxCell>
        <mxCell id="uSU6GmW2gP5diztikFpX-38" value="Slow Feed Data Service" style="rounded=0;whiteSpace=wrap;html=1;fillColor=#dae8fc;strokeColor=#6c8ebf;opacity=50;" parent="1" vertex="1">
          <mxGeometry x="490" y="254.6" width="120" height="60" as="geometry" />
        </mxCell>
        <mxCell id="uSU6GmW2gP5diztikFpX-43" value="" style="endArrow=classic;html=1;rounded=0;" parent="1" edge="1">
          <mxGeometry width="50" height="50" relative="1" as="geometry">
            <mxPoint x="350" y="220" as="sourcePoint" />
            <mxPoint x="380" y="190" as="targetPoint" />
          </mxGeometry>
        </mxCell>
        <mxCell id="uSU6GmW2gP5diztikFpX-46" value="" style="endArrow=classic;html=1;rounded=0;exitX=0.958;exitY=0.768;exitDx=0;exitDy=0;exitPerimeter=0;" parent="1" source="uSU6GmW2gP5diztikFpX-10" target="uSU6GmW2gP5diztikFpX-27" edge="1">
          <mxGeometry width="50" height="50" relative="1" as="geometry">
            <mxPoint x="340" y="310" as="sourcePoint" />
            <mxPoint x="390" y="260" as="targetPoint" />
          </mxGeometry>
        </mxCell>
        <mxCell id="uSU6GmW2gP5diztikFpX-47" value="" style="endArrow=classic;html=1;rounded=0;" parent="1" edge="1">
          <mxGeometry width="50" height="50" relative="1" as="geometry">
            <mxPoint x="330" y="280" as="sourcePoint" />
            <mxPoint x="390" y="360" as="targetPoint" />
          </mxGeometry>
        </mxCell>
        <mxCell id="uSU6GmW2gP5diztikFpX-54" value="" style="shape=cylinder3;whiteSpace=wrap;html=1;boundedLbl=1;backgroundOutline=1;size=15;fillColor=#dae8fc;strokeColor=#6c8ebf;" parent="1" vertex="1">
          <mxGeometry x="691" y="169.6" width="60" height="50" as="geometry" />
        </mxCell>
        <mxCell id="uSU6GmW2gP5diztikFpX-55" value="" style="shape=cylinder3;whiteSpace=wrap;html=1;boundedLbl=1;backgroundOutline=1;size=15;fillColor=#dae8fc;strokeColor=#6c8ebf;" parent="1" vertex="1">
          <mxGeometry x="691" y="259.6" width="60" height="50" as="geometry" />
        </mxCell>
        <mxCell id="uSU6GmW2gP5diztikFpX-60" value="Time-Series Database&lt;br&gt;" style="text;html=1;strokeColor=none;fillColor=none;align=center;verticalAlign=middle;whiteSpace=wrap;rounded=0;" parent="1" vertex="1">
          <mxGeometry x="650" y="220" width="160" height="30" as="geometry" />
        </mxCell>
        <mxCell id="uSU6GmW2gP5diztikFpX-62" value="Relational Database" style="text;html=1;strokeColor=none;fillColor=none;align=center;verticalAlign=middle;whiteSpace=wrap;rounded=0;" parent="1" vertex="1">
          <mxGeometry x="650" y="309.6" width="160" height="30" as="geometry" />
        </mxCell>
        <mxCell id="uSU6GmW2gP5diztikFpX-64" value="RBMQ Exchange" style="text;html=1;strokeColor=none;fillColor=none;align=center;verticalAlign=middle;whiteSpace=wrap;rounded=0;" parent="1" vertex="1">
          <mxGeometry x="220" y="284.6" width="140" height="30" as="geometry" />
        </mxCell>
        <mxCell id="uSU6GmW2gP5diztikFpX-68" value="Redis Channel" style="text;html=1;strokeColor=none;fillColor=none;align=center;verticalAlign=middle;whiteSpace=wrap;rounded=0;" parent="1" vertex="1">
          <mxGeometry x="320" y="490" width="114.29" height="20" as="geometry" />
        </mxCell>
        <mxCell id="uSU6GmW2gP5diztikFpX-75" value="&lt;span style=&quot;color: rgb(0, 0, 0); font-family: Helvetica; font-size: 12px; font-style: normal; font-variant-ligatures: normal; font-variant-caps: normal; font-weight: 400; letter-spacing: normal; orphans: 2; text-align: center; text-indent: 0px; text-transform: none; widows: 2; word-spacing: 0px; -webkit-text-stroke-width: 0px; background-color: rgb(251, 251, 251); text-decoration-thickness: initial; text-decoration-style: initial; text-decoration-color: initial; float: none; display: inline !important;&quot;&gt;Order-Book/Aggregate Service&lt;/span&gt;" style="text;html=1;strokeColor=none;fillColor=none;align=center;verticalAlign=middle;whiteSpace=wrap;rounded=0;" parent="1" vertex="1">
          <mxGeometry x="195.70999999999998" y="670" width="160" height="30" as="geometry" />
        </mxCell>
        <mxCell id="uSU6GmW2gP5diztikFpX-78" value="" style="shape=flexArrow;endArrow=classic;html=1;rounded=0;exitX=0.5;exitY=0;exitDx=0;exitDy=0;entryX=0.448;entryY=1.1;entryDx=0;entryDy=0;entryPerimeter=0;fillColor=#dae8fc;strokeColor=#6c8ebf;" parent="1" source="uSU6GmW2gP5diztikFpX-8" target="uSU6GmW2gP5diztikFpX-9" edge="1">
          <mxGeometry width="50" height="50" relative="1" as="geometry">
            <mxPoint x="350" y="950" as="sourcePoint" />
            <mxPoint x="400" y="900" as="targetPoint" />
          </mxGeometry>
        </mxCell>
        <mxCell id="uSU6GmW2gP5diztikFpX-80" value="Fast Feed API&lt;br&gt;" style="ellipse;shape=cloud;whiteSpace=wrap;html=1;" parent="1" vertex="1">
          <mxGeometry x="377.43" y="585" width="120" height="80" as="geometry" />
        </mxCell>
        <mxCell id="uSU6GmW2gP5diztikFpX-81" value="Slow Feed API&lt;br&gt;" style="ellipse;shape=cloud;whiteSpace=wrap;html=1;" parent="1" vertex="1">
          <mxGeometry x="580" y="585" width="120" height="80" as="geometry" />
        </mxCell>
        <mxCell id="uSU6GmW2gP5diztikFpX-82" value="Aggregate/Order-Book Creator Service" style="ellipse;shape=cloud;whiteSpace=wrap;html=1;" parent="1" vertex="1">
          <mxGeometry x="215.71" y="585" width="120" height="80" as="geometry" />
        </mxCell>
      </root>
    </mxGraphModel>
  </diagram>
</mxfile>
